<?xml version="1.0" encoding="UTF-8"?>
<svg xmlns="http://www.w3.org/2000/svg" xmlns:xlink="http://www.w3.org/1999/xlink" width="20px" height="20px" viewBox="0 0 20 20" version="1.1">
<g id="surface1">
<path style=" stroke:none;fill-rule:nonzero;fill:rgb(0%,0%,0%);fill-opacity:1;" d="M 0 10 C 0 4.484375 4.484375 0 10 0 C 12.226562 0 14.335938 0.714844 16.09375 2.070312 L 13.773438 5.089844 C 12.683594 4.253906 11.378906 3.808594 10 3.808594 C 6.585938 3.808594 3.808594 6.585938 3.808594 10 C 3.808594 13.414062 6.585938 16.191406 10 16.191406 C 12.75 16.191406 15.085938 14.390625 15.890625 11.90625 L 10 11.90625 L 10 8.09375 L 20 8.09375 L 20 10 C 20 15.515625 15.515625 20 10 20 C 4.484375 20 0 15.515625 0 10 Z M 0 10 "/>
</g>
</svg>
