<?xml version="1.0" encoding="utf-8"?>
<!-- Generator: Adobe Illustrator 26.1.0, SVG Export Plug-In . SVG Version: 6.00 Build 0)  -->
<svg version="1.1" id="Слой_1" xmlns="http://www.w3.org/2000/svg" xmlns:xlink="http://www.w3.org/1999/xlink" x="0px" y="0px"
	 viewBox="0 0 28.9 28.9" style="enable-background:new 0 0 28.9 28.9;" xml:space="preserve">
<style type="text/css">
	.st0{fill:#FFFFFF;}
	.st1{clip-path:url(#SVGID_00000008838414309033677120000015598236405063691144_);}
	.st2{fill:#595959;}
	.st3{clip-path:url(#SVGID_00000043436555874848450370000015136491796206908827_);}
	.st4{fill:none;stroke:#595959;stroke-miterlimit:10;}
	.st5{clip-path:url(#SVGID_00000140009114775744723300000010503685067738673828_);}
	.st6{fill:none;stroke:#595959;stroke-width:0.8816;stroke-miterlimit:10;}
</style>
<rect x="-25.5" y="-103.9" class="st0" width="221" height="160"/>
<g>
	<defs>
		<rect id="SVGID_1_" x="-0.5" y="-76.9" width="29.4" height="105.8"/>
	</defs>
	<clipPath id="SVGID_00000121238510930292744780000009739263576102457481_">
		<use xlink:href="#SVGID_1_"  style="overflow:visible;"/>
	</clipPath>
	<g style="clip-path:url(#SVGID_00000121238510930292744780000009739263576102457481_);">
		<path class="st2" d="M28.4-48H-0.5v-28.9h28.9V-48z M0.5-49h27v-27h-27 M0.5-76v27"/>
		<path class="st2" d="M11.4-62.9c0.4,0.4,0.5,0.9,0.5,1.5c0,0.4-0.1,0.9-0.3,1.3s-0.6,0.7-1.1,0.9c-0.5,0.2-1.1,0.3-1.8,0.3
			c-0.5,0-1.1-0.1-1.7-0.2c-0.5-0.1-1-0.3-1.4-0.6l0.7-1.4c0.3,0.2,0.6,0.4,1,0.5c0.4,0.1,0.8,0.2,1.2,0.2c0.4,0,0.8-0.1,1.1-0.2
			c0.2-0.2,0.4-0.4,0.4-0.7c0-0.6-0.5-1-1.5-1H7.8v-1.2l1.6-1.9H6v-1.5h5.5v1.2l-1.8,2.1C10.5-63.6,11-63.3,11.4-62.9z"/>
		<path class="st2" d="M15.7-68.5h1.6l-3.7,10.7H12L15.7-68.5z"/>
		<path class="st2" d="M22.5-62.9c0.4,0.4,0.5,0.9,0.5,1.5c0,0.4-0.1,0.9-0.3,1.3c-0.2,0.4-0.6,0.7-1.1,0.9
			c-0.5,0.2-1.1,0.3-1.8,0.3c-0.5,0-1.1-0.1-1.7-0.2c-0.5-0.1-1-0.3-1.4-0.6l0.7-1.4c0.3,0.2,0.6,0.4,1,0.5c0.4,0.1,0.8,0.2,1.2,0.2
			c0.4,0,0.8-0.1,1.1-0.2c0.2-0.2,0.4-0.4,0.4-0.7c0-0.6-0.5-1-1.5-1h-0.8v-1.2l1.6-1.9h-3.4v-1.5h5.5v1.2l-1.8,2.1
			C21.7-63.6,22.2-63.3,22.5-62.9z"/>
		<path class="st2" d="M28.7-9.6H-0.2v-28.9h28.9V-9.6z M0.7-10.5h26.9v-27H0.7V-10.5z"/>
		<path class="st2" d="M12.3-22v1.5h-6v-1.2l3-2.9c0.3-0.3,0.5-0.6,0.6-0.8c0.1-0.2,0.1-0.4,0.1-0.7c0-0.3-0.1-0.5-0.3-0.7
			C9.6-27,9.3-27,8.9-27c-0.3,0-0.6,0-0.9,0.2c-0.3,0.1-0.5,0.3-0.7,0.6l-1.3-0.9c0.3-0.4,0.7-0.8,1.3-1.1c0.5-0.2,1.2-0.4,1.9-0.4
			c0.6,0,1.1,0.1,1.6,0.3c0.4,0.2,0.8,0.4,1,0.8c0.2,0.3,0.4,0.8,0.4,1.2S12-25.4,11.8-25s-0.5,0.8-1,1.3l-1.8,1.7L12.3-22L12.3-22z
			"/>
		<path class="st2" d="M16.1-30h1.6l-3.7,10.7h-1.6L16.1-30z"/>
		<path class="st2" d="M22.9-24.4c0.4,0.4,0.5,0.9,0.5,1.5c0,0.4-0.1,0.9-0.3,1.3s-0.6,0.7-1.1,0.9c-0.5,0.2-1.1,0.3-1.8,0.3
			c-0.5,0-1.1-0.1-1.7-0.2c-0.5-0.1-1-0.3-1.4-0.6l0.7-1.4c0.3,0.2,0.6,0.4,1,0.5c0.4,0.1,0.8,0.2,1.2,0.2c0.4,0,0.8-0.1,1.1-0.2
			c0.2-0.2,0.4-0.4,0.4-0.7c0-0.6-0.5-1-1.5-1h-0.8v-1.2l1.6-1.9h-3.4v-1.5H23v1.2l-1.8,2.1C22-25.1,22.5-24.8,22.9-24.4z"/>
		<path class="st2" d="M28.9,28.9H0V0h28.9V28.9z M1,27.9h26.9V1H1V27.9z"/>
		<path class="st2" d="M9.7,10V18H7.8v-6.5H6.3V10H9.7z"/>
		<path class="st2" d="M14,8.4h1.6l-3.7,10.7h-1.6L14,8.4z"/>
		<path class="st2" d="M20.8,14.1c0.4,0.4,0.5,0.9,0.5,1.5c0,0.4-0.1,0.9-0.3,1.3c-0.2,0.4-0.6,0.7-1.1,0.9
			c-0.5,0.2-1.1,0.3-1.8,0.3c-0.5,0-1.1-0.1-1.7-0.2c-0.5-0.1-1-0.3-1.4-0.6l0.7-1.4c0.3,0.2,0.6,0.4,1,0.5c0.4,0.1,0.8,0.2,1.2,0.2
			c0.4,0,0.8-0.1,1.1-0.2c0.2-0.2,0.4-0.4,0.4-0.7c0-0.6-0.5-1-1.5-1h-0.8v-1.2l1.6-1.9h-3.4V10h5.5v1.2l-1.8,2.1
			C19.9,13.4,20.4,13.6,20.8,14.1z"/>
	</g>
</g>
<g>
	<defs>
		<rect id="SVGID_00000035524984066349816320000006706483554666515113_" x="65.5" y="-79.9" width="29.1" height="33.6"/>
	</defs>
	<clipPath id="SVGID_00000114767899747053622840000013282734639616990350_">
		<use xlink:href="#SVGID_00000035524984066349816320000006706483554666515113_"  style="overflow:visible;"/>
	</clipPath>
	<g style="clip-path:url(#SVGID_00000114767899747053622840000013282734639616990350_);">
		<path class="st2" d="M84.6-65.6c0.6,0.6,0.8,1.4,0.8,2.5v4.3h-2.2v-4.1c0-0.6-0.1-1.1-0.4-1.3c-0.2-0.2-0.6-0.5-1.1-0.5
			c-0.5,0-1,0.1-1.2,0.5c-0.4,0.4-0.5,0.8-0.5,1.4v3.8h-2.2V-63c0-1.2-0.5-1.8-1.4-1.8c-0.5,0-1,0.1-1.2,0.5
			c-0.4,0.4-0.5,0.8-0.5,1.4v3.8h-2.4v-7.5h2.2v0.8c0.2-0.4,0.6-0.6,1.1-0.7c0.4-0.1,0.8-0.2,1.3-0.2c0.5,0,1.1,0.1,1.4,0.4
			c0.4,0.2,0.8,0.5,1.1,1c0.4-0.4,0.7-0.7,1.2-1c0.5-0.2,1-0.4,1.6-0.4C83.3-66.4,84-66.1,84.6-65.6z"/>
		<path class="st2" d="M89.6-66.8v1h-3.8v-0.7l2-1.9c0.2-0.2,0.4-0.4,0.5-0.5c-0.1-0.2,0-0.4,0-0.5c0-0.2-0.1-0.4-0.2-0.5
			C88-70,87.7-70,87.5-70c-0.2,0-0.5,0-0.6,0.1c-0.2,0.1-0.4,0.2-0.5,0.4l-0.8-0.6c0.2-0.4,0.5-0.5,0.8-0.7c0.4-0.2,0.7-0.2,1.2-0.2
			c0.4,0,0.7,0.1,1,0.2c0.2,0.1,0.5,0.4,0.7,0.5c0.2,0.1,0.2,0.5,0.2,0.8c0,0.2,0,0.6-0.1,0.8c-0.1,0.2-0.4,0.5-0.7,0.8l-1.2,1.1
			H89.6z"/>
		<path class="st4" d="M66.1-54.7v-22.5h24"/>
		<path class="st4" d="M94.1-71.7v22.5H71.7"/>
		<path class="st4" d="M89.6-77.1l-3.5,2.1"/>
		<path class="st4" d="M89.6-77.3l-3.5-2.1"/>
		<path class="st4" d="M72.1-49.4l3.5-2"/>
		<path class="st4" d="M72.1-49.1l3.5,2.1"/>
	</g>
</g>
<g>
	<defs>
		<rect id="SVGID_00000075122649509112529920000013568715491829368972_" x="137.5" y="-77.9" width="29.1" height="29.1"/>
	</defs>
	<clipPath id="SVGID_00000023963840939227348330000003453865831056720012_">
		<use xlink:href="#SVGID_00000075122649509112529920000013568715491829368972_"  style="overflow:visible;"/>
	</clipPath>
	<g style="clip-path:url(#SVGID_00000023963840939227348330000003453865831056720012_);">
		<path class="st4" d="M165.9-66.6h-13.9v10.4"/>
		<path class="st6" d="M138.5-60h7.5"/>
		<path class="st6" d="M146.1-56.1v-10.6"/>
		<path class="st4" d="M152.1-52.7v3.3c2.4,0,14,0,14,0v-27.9h-27.9v27.9c0,0,6.1,0,8,0v-3.3"/>
		<path class="st4" d="M146-71.2v-5.9"/>
	</g>
</g>
</svg>
