<?xml version="1.0" encoding="utf-8"?>
<!-- Generator: Adobe Illustrator 26.1.0, SVG Export Plug-In . SVG Version: 6.00 Build 0)  -->
<svg version="1.1" id="Слой_1" xmlns="http://www.w3.org/2000/svg" xmlns:xlink="http://www.w3.org/1999/xlink" x="0px" y="0px"
	 viewBox="0 0 28.9 28.9" style="enable-background:new 0 0 28.9 28.9;" xml:space="preserve">
<style type="text/css">
	.st0{fill:#FFFFFF;}
	.st1{clip-path:url(#SVGID_00000145781472712565821370000010163021960064138113_);}
	.st2{fill:#595959;}
	.st3{clip-path:url(#SVGID_00000057842694292823666360000017217076023940313791_);}
	.st4{fill:none;stroke:#595959;stroke-miterlimit:10;}
	.st5{clip-path:url(#SVGID_00000159444314619009611220000001989872914321970874_);}
	.st6{fill:none;stroke:#595959;stroke-width:0.8816;stroke-miterlimit:10;}
</style>
<rect x="-25.2" y="-65.5" class="st0" width="221" height="160"/>
<g>
	<defs>
		<rect id="SVGID_1_" x="-0.2" y="-38.5" width="29.4" height="105.8"/>
	</defs>
	<clipPath id="SVGID_00000117649797234385476800000013233688321000159890_">
		<use xlink:href="#SVGID_1_"  style="overflow:visible;"/>
	</clipPath>
	<g style="clip-path:url(#SVGID_00000117649797234385476800000013233688321000159890_);">
		<path class="st2" d="M28.7-9.6H-0.2v-28.9h28.9V-9.6z M0.7-10.5h27v-27h-27 M0.7-37.5v27"/>
		<path class="st2" d="M11.7-24.4c0.4,0.4,0.5,0.9,0.5,1.5c0,0.4-0.1,0.9-0.3,1.3s-0.6,0.7-1.1,0.9c-0.5,0.2-1.1,0.3-1.8,0.3
			c-0.5,0-1.1-0.1-1.7-0.2c-0.5-0.1-1-0.3-1.4-0.6l0.7-1.4c0.3,0.2,0.6,0.4,1,0.5C8-22,8.4-21.9,8.9-21.9c0.4,0,0.8-0.1,1.1-0.2
			c0.2-0.2,0.4-0.4,0.4-0.7c0-0.6-0.5-1-1.5-1H8v-1.2L9.7-27H6.3v-1.5h5.5v1.2L10-25.2C10.8-25.1,11.3-24.8,11.7-24.4z"/>
		<path class="st2" d="M16-30h1.6l-3.7,10.7h-1.6L16-30z"/>
		<path class="st2" d="M22.8-24.4c0.4,0.4,0.5,0.9,0.5,1.5c0,0.4-0.1,0.9-0.3,1.3c-0.2,0.4-0.6,0.7-1.1,0.9
			c-0.5,0.2-1.1,0.3-1.8,0.3c-0.5,0-1.1-0.1-1.7-0.2c-0.5-0.1-1-0.3-1.4-0.6l0.7-1.4c0.3,0.2,0.6,0.4,1,0.5c0.4,0.1,0.8,0.2,1.2,0.2
			c0.4,0,0.8-0.1,1.1-0.2c0.2-0.2,0.4-0.4,0.4-0.7c0-0.6-0.5-1-1.5-1h-0.8v-1.2l1.6-1.9h-3.4v-1.5h5.5v1.2l-1.8,2.1
			C21.9-25.1,22.4-24.8,22.8-24.4z"/>
		<path class="st2" d="M28.9,28.9H0V0h28.9V28.9z M1,27.9h26.9V1H1V27.9z"/>
		<path class="st2" d="M12.5,16.5v1.5h-6v-1.2l3-2.9c0.3-0.3,0.5-0.6,0.6-0.8c0.1-0.2,0.1-0.4,0.1-0.7c0-0.3-0.1-0.5-0.3-0.7
			c-0.2-0.1-0.5-0.2-0.9-0.2c-0.3,0-0.6,0-0.9,0.2c-0.3,0.1-0.5,0.3-0.7,0.6l-1.3-0.9c0.3-0.4,0.7-0.8,1.3-1.1C8,10,8.6,9.8,9.3,9.8
			c0.6,0,1.1,0.1,1.6,0.3c0.4,0.2,0.8,0.4,1,0.8c0.2,0.3,0.4,0.8,0.4,1.2S12.2,13,12,13.4s-0.5,0.8-1,1.3l-1.8,1.7L12.5,16.5
			L12.5,16.5z"/>
		<path class="st2" d="M16.3,8.4h1.6l-3.7,10.7h-1.6L16.3,8.4z"/>
		<path class="st2" d="M23.1,14.1c0.4,0.4,0.5,0.9,0.5,1.5c0,0.4-0.1,0.9-0.3,1.3s-0.6,0.7-1.1,0.9c-0.5,0.2-1.1,0.3-1.8,0.3
			c-0.5,0-1.1-0.1-1.7-0.2c-0.5-0.1-1-0.3-1.4-0.6l0.7-1.4c0.3,0.2,0.6,0.4,1,0.5c0.4,0.1,0.8,0.2,1.2,0.2c0.4,0,0.8-0.1,1.1-0.2
			c0.2-0.2,0.4-0.4,0.4-0.7c0-0.6-0.5-1-1.5-1h-0.8v-1.2l1.6-1.9h-3.4V10h5.5v1.2l-1.8,2.1C22.2,13.4,22.8,13.6,23.1,14.1z"/>
		<path class="st2" d="M29.2,67.4H0.2V38.5h28.9V67.4z M1.2,66.4h26.9V39.4H1.2V66.4z"/>
		<path class="st2" d="M9.9,48.5v7.9H8.1V50H6.5v-1.5H9.9z"/>
		<path class="st2" d="M14.2,46.9h1.6l-3.7,10.7h-1.6L14.2,46.9z"/>
		<path class="st2" d="M21,52.5c0.4,0.4,0.5,0.9,0.5,1.5c0,0.4-0.1,0.9-0.3,1.3c-0.2,0.4-0.6,0.7-1.1,0.9c-0.5,0.2-1.1,0.3-1.8,0.3
			c-0.5,0-1.1-0.1-1.7-0.2c-0.5-0.1-1-0.3-1.4-0.6l0.7-1.4c0.3,0.2,0.6,0.4,1,0.5c0.4,0.1,0.8,0.2,1.2,0.2c0.4,0,0.8-0.1,1.1-0.2
			c0.2-0.2,0.4-0.4,0.4-0.7c0-0.6-0.5-1-1.5-1h-0.8v-1.2L19,50h-3.4v-1.5h5.5v1.2l-1.8,2.1C20.1,51.8,20.7,52.1,21,52.5z"/>
	</g>
</g>
<g>
	<defs>
		<rect id="SVGID_00000160185779448394607750000010021535089928142480_" x="65.8" y="-41.5" width="29.1" height="33.6"/>
	</defs>
	<clipPath id="SVGID_00000017482063909460577300000016176381206483368097_">
		<use xlink:href="#SVGID_00000160185779448394607750000010021535089928142480_"  style="overflow:visible;"/>
	</clipPath>
	<g style="clip-path:url(#SVGID_00000017482063909460577300000016176381206483368097_);">
		<path class="st2" d="M84.9-27.1c0.6,0.6,0.8,1.4,0.8,2.5v4.3h-2.2v-4.1c0-0.6-0.1-1.1-0.4-1.3c-0.2-0.2-0.6-0.5-1.1-0.5
			c-0.5,0-1,0.1-1.2,0.5c-0.4,0.4-0.5,0.8-0.5,1.4v3.8h-2.2v-4.1c0-1.2-0.5-1.8-1.4-1.8c-0.5,0-1,0.1-1.2,0.5
			c-0.4,0.4-0.5,0.8-0.5,1.4v3.8h-2.4v-7.5H75v0.8c0.2-0.4,0.6-0.6,1.1-0.7c0.4-0.1,0.8-0.2,1.3-0.2c0.5,0,1.1,0.1,1.4,0.4
			c0.4,0.2,0.8,0.5,1.1,1c0.4-0.4,0.7-0.7,1.2-1c0.5-0.2,1-0.4,1.6-0.4C83.6-28,84.3-27.6,84.9-27.1z"/>
		<path class="st2" d="M89.9-28.3v1h-3.8v-0.7l2-1.9c0.2-0.2,0.4-0.4,0.5-0.5c-0.1-0.2,0-0.4,0-0.5c0-0.2-0.1-0.4-0.2-0.5
			c-0.1-0.1-0.4-0.1-0.6-0.1c-0.2,0-0.5,0-0.6,0.1c-0.2,0.1-0.4,0.2-0.5,0.4l-0.8-0.6c0.2-0.4,0.5-0.5,0.8-0.7
			c0.4-0.2,0.7-0.2,1.2-0.2c0.4,0,0.7,0.1,1,0.2c0.2,0.1,0.5,0.4,0.7,0.5c0.2,0.1,0.2,0.5,0.2,0.8c0,0.2,0,0.6-0.1,0.8
			c-0.1,0.2-0.4,0.5-0.7,0.8l-1.2,1.1H89.9z"/>
		<path class="st4" d="M66.4-16.3v-22.5h24"/>
		<path class="st4" d="M94.3-33.2v22.5H72"/>
		<path class="st4" d="M89.9-38.6l-3.5,2.1"/>
		<path class="st4" d="M89.9-38.8L86.4-41"/>
		<path class="st4" d="M72.3-10.9l3.5-2"/>
		<path class="st4" d="M72.3-10.7l3.5,2.1"/>
	</g>
</g>
<g>
	<defs>
		<rect id="SVGID_00000084522641538116940380000015725923033423289004_" x="137.8" y="-39.5" width="29.1" height="29.1"/>
	</defs>
	<clipPath id="SVGID_00000098193048502878644440000008470299551770708864_">
		<use xlink:href="#SVGID_00000084522641538116940380000015725923033423289004_"  style="overflow:visible;"/>
	</clipPath>
	<g style="clip-path:url(#SVGID_00000098193048502878644440000008470299551770708864_);">
		<path class="st4" d="M166.2-28.1h-13.9v10.4"/>
		<path class="st6" d="M138.7-21.5h7.5"/>
		<path class="st6" d="M146.4-17.6v-10.6"/>
		<path class="st4" d="M152.3-14.3v3.3c2.4,0,14,0,14,0v-27.9h-27.9v27.9c0,0,6.1,0,8,0v-3.3"/>
		<path class="st4" d="M146.2-32.8v-5.9"/>
	</g>
</g>
</svg>
