<?xml version="1.0" encoding="utf-8"?>
<!-- Generator: Adobe Illustrator 26.1.0, SVG Export Plug-In . SVG Version: 6.00 Build 0)  -->
<svg version="1.1" id="Слой_1" xmlns="http://www.w3.org/2000/svg" xmlns:xlink="http://www.w3.org/1999/xlink" x="0px" y="0px"
	 viewBox="0 0 28.9 28.9" style="enable-background:new 0 0 28.9 28.9;" xml:space="preserve">
<style type="text/css">
	.st0{fill:#FFFFFF;}
	.st1{clip-path:url(#SVGID_00000065795235758653473150000004348319872262662326_);}
	.st2{fill:#595959;}
	.st3{clip-path:url(#SVGID_00000065771797707971303850000017761610475684787624_);}
	.st4{fill:none;stroke:#595959;stroke-miterlimit:10;}
	.st5{clip-path:url(#SVGID_00000003807221004511223100000004584271404718687374_);}
	.st6{fill:none;stroke:#595959;stroke-width:0.8816;stroke-miterlimit:10;}
</style>
<rect x="-25" y="-27" class="st0" width="221" height="160"/>
<g>
	<defs>
		<rect id="SVGID_1_" width="29.4" height="105.8"/>
	</defs>
	<clipPath id="SVGID_00000073709672950208938740000007224907245933383325_">
		<use xlink:href="#SVGID_1_"  style="overflow:visible;"/>
	</clipPath>
	<g style="clip-path:url(#SVGID_00000073709672950208938740000007224907245933383325_);">
		<path class="st2" d="M28.9,28.9H0V0h28.9V28.9z M1,27.9h27V1H1 M1,1v27"/>
		<path class="st2" d="M11.9,14.1c0.4,0.4,0.5,0.9,0.5,1.5c0,0.4-0.1,0.9-0.3,1.3s-0.6,0.7-1.1,0.9c-0.5,0.2-1.1,0.3-1.8,0.3
			c-0.5,0-1.1-0.1-1.7-0.2c-0.5-0.1-1-0.3-1.4-0.6l0.7-1.4c0.3,0.2,0.6,0.4,1,0.5c0.4,0.1,0.8,0.2,1.2,0.2c0.4,0,0.8-0.1,1.1-0.2
			c0.2-0.2,0.4-0.4,0.4-0.7c0-0.6-0.5-1-1.5-1H8.3v-1.2l1.6-1.9H6.5V10h5.5v1.2l-1.8,2.1C11,13.4,11.5,13.6,11.9,14.1z"/>
		<path class="st2" d="M16.2,8.4h1.6l-3.7,10.7h-1.6L16.2,8.4z"/>
		<path class="st2" d="M23,14.1c0.4,0.4,0.5,0.9,0.5,1.5c0,0.4-0.1,0.9-0.3,1.3c-0.2,0.4-0.6,0.7-1.1,0.9c-0.5,0.2-1.1,0.3-1.8,0.3
			c-0.5,0-1.1-0.1-1.7-0.2c-0.5-0.1-1-0.3-1.4-0.6l0.7-1.4c0.3,0.2,0.6,0.4,1,0.5c0.4,0.1,0.8,0.2,1.2,0.2c0.4,0,0.8-0.1,1.1-0.2
			c0.2-0.2,0.4-0.4,0.4-0.7c0-0.6-0.5-1-1.5-1h-0.8v-1.2l1.6-1.9h-3.4V10h5.5v1.2l-1.8,2.1C22.1,13.4,22.7,13.6,23,14.1z"/>
		<path class="st2" d="M29.2,67.4H0.2V38.5h28.9V67.4z M1.2,66.4h26.9v-27H1.2V66.4z"/>
		<path class="st2" d="M12.8,54.9v1.5h-6v-1.2l3-2.9c0.3-0.3,0.5-0.6,0.6-0.8c0.1-0.2,0.1-0.4,0.1-0.7c0-0.3-0.1-0.5-0.3-0.7
			c-0.2-0.1-0.5-0.2-0.9-0.2c-0.3,0-0.6,0-0.9,0.2c-0.3,0.1-0.5,0.3-0.7,0.6l-1.3-0.9c0.3-0.4,0.7-0.8,1.3-1.1
			c0.5-0.2,1.2-0.4,1.9-0.4c0.6,0,1.1,0.1,1.6,0.3c0.4,0.2,0.8,0.4,1,0.8c0.2,0.3,0.4,0.8,0.4,1.2s-0.1,0.8-0.3,1.2s-0.5,0.8-1,1.3
			l-1.8,1.7L12.8,54.9L12.8,54.9z"/>
		<path class="st2" d="M16.6,46.9h1.6l-3.7,10.7h-1.6L16.6,46.9z"/>
		<path class="st2" d="M23.4,52.5c0.4,0.4,0.5,0.9,0.5,1.5c0,0.4-0.1,0.9-0.3,1.3S23,56,22.4,56.3c-0.5,0.2-1.1,0.3-1.8,0.3
			c-0.5,0-1.1-0.1-1.7-0.2c-0.5-0.1-1-0.3-1.4-0.6l0.7-1.4c0.3,0.2,0.6,0.4,1,0.5c0.4,0.1,0.8,0.2,1.2,0.2c0.4,0,0.8-0.1,1.1-0.2
			c0.2-0.2,0.4-0.4,0.4-0.7c0-0.6-0.5-1-1.5-1h-0.8v-1.2l1.6-1.9H18v-1.5h5.5v1.2l-1.8,2.1C22.5,51.8,23,52.1,23.4,52.5z"/>
		<path class="st2" d="M29.4,105.8H0.5V76.9h28.9V105.8z M1.5,104.9h26.9V77.9H1.5V104.9z"/>
		<path class="st2" d="M10.1,87v7.9H8.3v-6.5H6.8V87H10.1z"/>
		<path class="st2" d="M14.5,85.4H16L12.3,96h-1.6L14.5,85.4z"/>
		<path class="st2" d="M21.3,91c0.4,0.4,0.5,0.9,0.5,1.5c0,0.4-0.1,0.9-0.3,1.3c-0.2,0.4-0.6,0.7-1.1,0.9c-0.5,0.2-1.1,0.3-1.8,0.3
			c-0.5,0-1.1-0.1-1.7-0.2c-0.5-0.1-1-0.3-1.4-0.6l0.7-1.4c0.3,0.2,0.6,0.4,1,0.5c0.4,0.1,0.8,0.2,1.2,0.2c0.4,0,0.8-0.1,1.1-0.2
			c0.2-0.2,0.4-0.4,0.4-0.7c0-0.6-0.5-1-1.5-1h-0.8v-1.2l1.6-1.9h-3.4V87h5.5v1.2l-1.8,2.1C20.4,90.3,20.9,90.6,21.3,91z"/>
	</g>
</g>
<g>
	<defs>
		<rect id="SVGID_00000152965202180516323880000006144259825183906188_" x="66" y="-3" width="29.1" height="33.6"/>
	</defs>
	<clipPath id="SVGID_00000145054029317798311240000016562726444994808241_">
		<use xlink:href="#SVGID_00000152965202180516323880000006144259825183906188_"  style="overflow:visible;"/>
	</clipPath>
	<g style="clip-path:url(#SVGID_00000145054029317798311240000016562726444994808241_);">
		<path class="st2" d="M85.1,11.3c0.6,0.6,0.8,1.4,0.8,2.5v4.3h-2.2v-4.1c0-0.6-0.1-1.1-0.4-1.3c-0.2-0.2-0.6-0.5-1.1-0.5
			c-0.5,0-1,0.1-1.2,0.5c-0.4,0.4-0.5,0.8-0.5,1.4V18h-2.2V14c0-1.2-0.5-1.8-1.4-1.8c-0.5,0-1,0.1-1.2,0.5c-0.4,0.4-0.5,0.8-0.5,1.4
			v3.8H73v-7.5h2.2v0.8c0.2-0.4,0.6-0.6,1.1-0.7c0.4-0.1,0.8-0.2,1.3-0.2c0.5,0,1.1,0.1,1.4,0.4c0.4,0.2,0.8,0.5,1.1,1
			c0.4-0.4,0.7-0.7,1.2-1c0.5-0.2,1-0.4,1.6-0.4C83.8,10.5,84.5,10.9,85.1,11.3z"/>
		<path class="st2" d="M90.1,10.1v1h-3.8v-0.7l2-1.9c0.2-0.2,0.4-0.4,0.5-0.5c-0.1-0.2,0-0.4,0-0.5c0-0.2-0.1-0.4-0.2-0.5
			c-0.1-0.1-0.4-0.1-0.6-0.1c-0.2,0-0.5,0-0.6,0.1c-0.2,0.1-0.4,0.2-0.5,0.4l-0.8-0.6c0.2-0.4,0.5-0.5,0.8-0.7
			c0.4-0.2,0.7-0.2,1.2-0.2c0.4,0,0.7,0.1,1,0.2c0.2,0.1,0.5,0.4,0.7,0.5C90,6.7,90,7,90,7.4c0,0.2,0,0.6-0.1,0.8
			c-0.1,0.2-0.4,0.5-0.7,0.8L88,10.1H90.1z"/>
		<path class="st4" d="M66.6,22.2V-0.3h24"/>
		<path class="st4" d="M94.5,5.2v22.5H72.2"/>
		<path class="st4" d="M90.1-0.1L86.7,2"/>
		<path class="st4" d="M90.1-0.4l-3.5-2.1"/>
		<path class="st4" d="M72.6,27.6l3.5-2"/>
		<path class="st4" d="M72.6,27.8L76,30"/>
	</g>
</g>
<g>
	<defs>
		<rect id="SVGID_00000060013688190826796120000016882112612787130547_" x="138" y="-1" width="29.1" height="29.1"/>
	</defs>
	<clipPath id="SVGID_00000127028362015353031570000013456364516150634125_">
		<use xlink:href="#SVGID_00000060013688190826796120000016882112612787130547_"  style="overflow:visible;"/>
	</clipPath>
	<g style="clip-path:url(#SVGID_00000127028362015353031570000013456364516150634125_);">
		<path class="st4" d="M166.4,10.3h-13.9v10.4"/>
		<path class="st6" d="M139,16.9h7.5"/>
		<path class="st6" d="M146.6,20.9V10.2"/>
		<path class="st4" d="M152.6,24.2v3.3c2.4,0,14,0,14,0V-0.4h-27.9v27.9c0,0,6.1,0,8,0v-3.3"/>
		<path class="st4" d="M146.5,5.7v-5.9"/>
	</g>
</g>
</svg>
