<?xml version="1.0" encoding="utf-8"?>
<!-- Generator: Adobe Illustrator 26.1.0, SVG Export Plug-In . SVG Version: 6.00 Build 0)  -->
<svg version="1.1" id="Слой_1" xmlns="http://www.w3.org/2000/svg" xmlns:xlink="http://www.w3.org/1999/xlink" x="0px" y="0px"
	 viewBox="0 0 29.1 29.1" style="enable-background:new 0 0 29.1 29.1;" xml:space="preserve">
<style type="text/css">
	.st0{fill:#FFFFFF;}
	.st1{clip-path:url(#SVGID_00000183942070049698102790000005022350294011170972_);}
	.st2{fill:#595959;}
	.st3{clip-path:url(#SVGID_00000031172624278203197790000005210057234231025066_);}
	.st4{fill:none;stroke:#595959;stroke-miterlimit:10;}
	.st5{clip-path:url(#SVGID_00000024001913754134408570000000853838635900009632_);}
	.st6{fill:none;stroke:#595959;stroke-width:0.8816;stroke-miterlimit:10;}
</style>
<rect x="-163" y="-26" class="st0" width="221" height="160"/>
<g>
	<defs>
		<rect id="SVGID_1_" x="-138" y="1" width="29.4" height="105.8"/>
	</defs>
	<clipPath id="SVGID_00000156586559471997940080000014575400906333755778_">
		<use xlink:href="#SVGID_1_"  style="overflow:visible;"/>
	</clipPath>
	<g style="clip-path:url(#SVGID_00000156586559471997940080000014575400906333755778_);">
		<path class="st2" d="M-109.1,29.9H-138V1h28.9V29.9z M-137,28.9h27V2h-27 M-137,2v27"/>
		<path class="st2" d="M-126.1,15.1c0.4,0.4,0.5,0.9,0.5,1.5c0,0.4-0.1,0.9-0.3,1.3c-0.2,0.4-0.6,0.7-1.1,0.9
			c-0.5,0.2-1.1,0.3-1.8,0.3c-0.5,0-1.1-0.1-1.7-0.2c-0.5-0.1-1-0.3-1.4-0.6l0.7-1.4c0.3,0.2,0.6,0.4,1,0.5c0.4,0.1,0.8,0.2,1.2,0.2
			s0.8-0.1,1.1-0.2c0.2-0.2,0.4-0.4,0.4-0.7c0-0.6-0.5-1-1.5-1h-0.8v-1.2l1.6-1.9h-3.4V11h5.5v1.2l-1.8,2.1
			C-127,14.4-126.5,14.6-126.1,15.1z"/>
		<path class="st2" d="M-121.8,9.4h1.6l-3.7,10.7h-1.6L-121.8,9.4z"/>
		<path class="st2" d="M-115,15.1c0.4,0.4,0.5,0.9,0.5,1.5c0,0.4-0.1,0.9-0.3,1.3c-0.2,0.4-0.6,0.7-1.1,0.9
			c-0.5,0.2-1.1,0.3-1.8,0.3c-0.5,0-1.1-0.1-1.7-0.2c-0.5-0.1-1-0.3-1.4-0.6l0.7-1.4c0.3,0.2,0.6,0.4,1,0.5c0.4,0.1,0.8,0.2,1.2,0.2
			c0.4,0,0.8-0.1,1.1-0.2c0.2-0.2,0.4-0.4,0.4-0.7c0-0.6-0.5-1-1.5-1h-0.8v-1.2l1.6-1.9h-3.4V11h5.5v1.2l-1.8,2.1
			C-115.9,14.4-115.3,14.6-115,15.1z"/>
		<path class="st2" d="M-108.8,68.4h-28.9V39.5h28.9V68.4z M-136.8,67.4h26.9v-27h-26.9V67.4z"/>
		<path class="st2" d="M-125.2,55.9v1.5h-6v-1.2l3-2.9c0.3-0.3,0.5-0.6,0.6-0.8c0.1-0.2,0.1-0.4,0.1-0.7c0-0.3-0.1-0.5-0.3-0.7
			c-0.2-0.1-0.5-0.2-0.9-0.2c-0.3,0-0.6,0-0.9,0.2c-0.3,0.1-0.5,0.3-0.7,0.6l-1.3-0.9c0.3-0.4,0.7-0.8,1.3-1.1
			c0.5-0.2,1.2-0.4,1.9-0.4c0.6,0,1.1,0.1,1.6,0.3c0.4,0.2,0.8,0.4,1,0.8c0.2,0.3,0.4,0.8,0.4,1.2s-0.1,0.8-0.3,1.2s-0.5,0.8-1,1.3
			l-1.8,1.7L-125.2,55.9L-125.2,55.9z"/>
		<path class="st2" d="M-121.4,47.9h1.6l-3.7,10.7h-1.6L-121.4,47.9z"/>
		<path class="st2" d="M-114.6,53.5c0.4,0.4,0.5,0.9,0.5,1.5c0,0.4-0.1,0.9-0.3,1.3s-0.6,0.7-1.1,0.9c-0.5,0.2-1.1,0.3-1.8,0.3
			c-0.5,0-1.1-0.1-1.7-0.2c-0.5-0.1-1-0.3-1.4-0.6l0.7-1.4c0.3,0.2,0.6,0.4,1,0.5c0.4,0.1,0.8,0.2,1.2,0.2s0.8-0.1,1.1-0.2
			c0.2-0.2,0.4-0.4,0.4-0.7c0-0.6-0.5-1-1.5-1h-0.8v-1.2l1.6-1.9h-3.4v-1.5h5.5v1.2l-1.8,2.1C-115.5,52.8-115,53.1-114.6,53.5z"/>
		<path class="st2" d="M-108.6,106.8h-28.9V77.9h28.9V106.8z M-136.5,105.9h26.9V78.9h-26.9V105.9z"/>
		<path class="st2" d="M-127.9,88v7.9h-1.8v-6.5h-1.6V88H-127.9z"/>
		<path class="st2" d="M-123.5,86.4h1.6l-3.7,10.7h-1.6L-123.5,86.4z"/>
		<path class="st2" d="M-116.7,92c0.4,0.4,0.5,0.9,0.5,1.5c0,0.4-0.1,0.9-0.3,1.3c-0.2,0.4-0.6,0.7-1.1,0.9
			c-0.5,0.2-1.1,0.3-1.8,0.3c-0.5,0-1.1-0.1-1.7-0.2c-0.5-0.1-1-0.3-1.4-0.6l0.7-1.4c0.3,0.2,0.6,0.4,1,0.5c0.4,0.1,0.8,0.2,1.2,0.2
			c0.4,0,0.8-0.1,1.1-0.2c0.2-0.2,0.4-0.4,0.4-0.7c0-0.6-0.5-1-1.5-1h-0.8v-1.2l1.6-1.9h-3.4V88h5.5v1.2l-1.8,2.1
			C-117.6,91.3-117.1,91.6-116.7,92z"/>
	</g>
</g>
<g>
	<defs>
		<rect id="SVGID_00000054947010401576176400000008268690208631177377_" x="-72" y="-2" width="29.1" height="33.6"/>
	</defs>
	<clipPath id="SVGID_00000082332085755354022100000000884524442051170994_">
		<use xlink:href="#SVGID_00000054947010401576176400000008268690208631177377_"  style="overflow:visible;"/>
	</clipPath>
	<g style="clip-path:url(#SVGID_00000082332085755354022100000000884524442051170994_);">
		<path class="st2" d="M-52.9,12.3c0.6,0.6,0.8,1.4,0.8,2.5v4.3h-2.2v-4.1c0-0.6-0.1-1.1-0.4-1.3c-0.2-0.2-0.6-0.5-1.1-0.5
			c-0.5,0-1,0.1-1.2,0.5c-0.4,0.4-0.5,0.8-0.5,1.4V19h-2.2V15c0-1.2-0.5-1.8-1.4-1.8c-0.5,0-1,0.1-1.2,0.5c-0.4,0.4-0.5,0.8-0.5,1.4
			v3.8H-65v-7.5h2.2v0.8c0.2-0.4,0.6-0.6,1.1-0.7c0.4-0.1,0.8-0.2,1.3-0.2c0.5,0,1.1,0.1,1.4,0.4c0.4,0.2,0.8,0.5,1.1,1
			c0.4-0.4,0.7-0.7,1.2-1c0.5-0.2,1-0.4,1.6-0.4C-54.2,11.5-53.5,11.9-52.9,12.3z"/>
		<path class="st2" d="M-47.9,11.1v1h-3.8v-0.7l2-1.9c0.2-0.2,0.4-0.4,0.5-0.5c-0.1-0.2,0-0.4,0-0.5c0-0.2-0.1-0.4-0.2-0.5
			c-0.1-0.1-0.4-0.1-0.6-0.1c-0.2,0-0.5,0-0.6,0.1c-0.2,0.1-0.4,0.2-0.5,0.4l-0.8-0.6c0.2-0.4,0.5-0.5,0.8-0.7
			c0.4-0.2,0.7-0.2,1.2-0.2c0.4,0,0.7,0.1,1,0.2c0.2,0.1,0.5,0.4,0.7,0.5C-48,7.7-48,8-48,8.4c0,0.2,0,0.6-0.1,0.8
			c-0.1,0.2-0.4,0.5-0.7,0.8l-1.2,1.1H-47.9z"/>
		<path class="st4" d="M-71.4,23.2V0.7h24"/>
		<path class="st4" d="M-43.5,6.2v22.5h-22.3"/>
		<path class="st4" d="M-47.9,0.9L-51.3,3"/>
		<path class="st4" d="M-47.9,0.6l-3.5-2.1"/>
		<path class="st4" d="M-65.4,28.6l3.5-2"/>
		<path class="st4" d="M-65.4,28.8L-62,31"/>
	</g>
</g>
<g>
	<defs>
		<rect id="SVGID_00000003090363730022322810000017956772914396786329_" width="29.1" height="29.1"/>
	</defs>
	<clipPath id="SVGID_00000107589252198070213240000000201763314429023916_">
		<use xlink:href="#SVGID_00000003090363730022322810000017956772914396786329_"  style="overflow:visible;"/>
	</clipPath>
	<g style="clip-path:url(#SVGID_00000107589252198070213240000000201763314429023916_);">
		<path class="st4" d="M28.4,11.3H14.6v10.4"/>
		<path class="st6" d="M1,17.9h7.5"/>
		<path class="st6" d="M8.6,21.9V11.2"/>
		<path class="st4" d="M14.6,25.2v3.3c2.4,0,14,0,14,0V0.6H0.6v27.9c0,0,6.1,0,8,0v-3.3"/>
		<path class="st4" d="M8.5,6.7V0.8"/>
	</g>
</g>
</svg>
