<?xml version="1.0" encoding="utf-8"?>
<!-- Generator: Adobe Illustrator 26.1.0, SVG Export Plug-In . SVG Version: 6.00 Build 0)  -->
<svg version="1.1" id="Слой_1" xmlns="http://www.w3.org/2000/svg" xmlns:xlink="http://www.w3.org/1999/xlink" x="0px" y="0px"
	 viewBox="0 0 29.1 33.6" style="enable-background:new 0 0 29.1 33.6;" xml:space="preserve">
<style type="text/css">
	.st0{fill:#FFFFFF;}
	.st1{clip-path:url(#SVGID_00000030469986193034604920000000129054416321919383_);}
	.st2{fill:#595959;}
	.st3{clip-path:url(#SVGID_00000075869333151581468380000007270470243496048046_);}
	.st4{fill:none;stroke:#595959;stroke-miterlimit:10;}
	.st5{clip-path:url(#SVGID_00000109743505582482115270000015095953481964310442_);}
	.st6{fill:none;stroke:#595959;stroke-width:0.8816;stroke-miterlimit:10;}
</style>
<rect x="-91" y="-24" class="st0" width="221" height="160"/>
<g>
	<defs>
		<rect id="SVGID_1_" x="-66" y="3" width="29.4" height="105.8"/>
	</defs>
	<clipPath id="SVGID_00000021841840869880885040000000584534962783329451_">
		<use xlink:href="#SVGID_1_"  style="overflow:visible;"/>
	</clipPath>
	<g style="clip-path:url(#SVGID_00000021841840869880885040000000584534962783329451_);">
		<path class="st2" d="M-37.1,31.9H-66V3h28.9V31.9z M-65,30.9h27V4h-27 M-65,4v27"/>
		<path class="st2" d="M-54.1,17.1c0.4,0.4,0.5,0.9,0.5,1.5c0,0.4-0.1,0.9-0.3,1.3s-0.6,0.7-1.1,0.9c-0.5,0.2-1.1,0.3-1.8,0.3
			c-0.5,0-1.1-0.1-1.7-0.2c-0.5-0.1-1-0.3-1.4-0.6l0.7-1.4c0.3,0.2,0.6,0.4,1,0.5c0.4,0.1,0.8,0.2,1.2,0.2c0.4,0,0.8-0.1,1.1-0.2
			c0.2-0.2,0.4-0.4,0.4-0.7c0-0.6-0.5-1-1.5-1h-0.8v-1.2l1.6-1.9h-3.4V13h5.5v1.2l-1.8,2.1C-55,16.4-54.5,16.6-54.1,17.1z"/>
		<path class="st2" d="M-49.8,11.4h1.6l-3.7,10.7h-1.6L-49.8,11.4z"/>
		<path class="st2" d="M-43,17.1c0.4,0.4,0.5,0.9,0.5,1.5c0,0.4-0.1,0.9-0.3,1.3c-0.2,0.4-0.6,0.7-1.1,0.9c-0.5,0.2-1.1,0.3-1.8,0.3
			c-0.5,0-1.1-0.1-1.7-0.2c-0.5-0.1-1-0.3-1.4-0.6l0.7-1.4c0.3,0.2,0.6,0.4,1,0.5c0.4,0.1,0.8,0.2,1.2,0.2c0.4,0,0.8-0.1,1.1-0.2
			c0.2-0.2,0.4-0.4,0.4-0.7c0-0.6-0.5-1-1.5-1h-0.8v-1.2l1.6-1.9h-3.4V13h5.5v1.2l-1.8,2.1C-43.9,16.4-43.3,16.6-43,17.1z"/>
		<path class="st2" d="M-36.8,70.4h-28.9V41.5h28.9V70.4z M-64.8,69.4h27v-27h-27V69.4z"/>
		<path class="st2" d="M-53.2,57.9v1.5h-6v-1.2l3-2.9c0.3-0.3,0.5-0.6,0.6-0.8c0.1-0.2,0.1-0.4,0.1-0.7c0-0.3-0.1-0.5-0.3-0.7
			c-0.2-0.1-0.5-0.2-0.9-0.2c-0.3,0-0.6,0-0.9,0.2c-0.3,0.1-0.5,0.3-0.7,0.6l-1.3-0.9c0.3-0.4,0.7-0.8,1.3-1.1
			c0.5-0.2,1.2-0.4,1.9-0.4c0.6,0,1.1,0.1,1.6,0.3c0.4,0.2,0.8,0.4,1,0.8c0.2,0.3,0.4,0.8,0.4,1.2s-0.1,0.8-0.3,1.2s-0.5,0.8-1,1.3
			l-1.8,1.7L-53.2,57.9L-53.2,57.9z"/>
		<path class="st2" d="M-49.4,49.9h1.6l-3.7,10.7h-1.6L-49.4,49.9z"/>
		<path class="st2" d="M-42.6,55.5c0.4,0.4,0.5,0.9,0.5,1.5c0,0.4-0.1,0.9-0.3,1.3s-0.6,0.7-1.1,0.9c-0.5,0.2-1.1,0.3-1.8,0.3
			c-0.5,0-1.1-0.1-1.7-0.2c-0.5-0.1-1-0.3-1.4-0.6l0.7-1.4c0.3,0.2,0.6,0.4,1,0.5c0.4,0.1,0.8,0.2,1.2,0.2c0.4,0,0.8-0.1,1.1-0.2
			c0.2-0.2,0.4-0.4,0.4-0.7c0-0.6-0.5-1-1.5-1h-0.8v-1.2l1.6-1.9H-48v-1.5h5.5v1.2l-1.8,2.1C-43.5,54.8-43,55.1-42.6,55.5z"/>
		<path class="st2" d="M-36.6,108.8h-28.9V79.9h28.9V108.8z M-64.5,107.9h26.9V80.9h-26.9V107.9z"/>
		<path class="st2" d="M-55.9,90v7.9h-1.8v-6.5h-1.6V90H-55.9z"/>
		<path class="st2" d="M-51.5,88.4h1.6L-53.7,99h-1.6L-51.5,88.4z"/>
		<path class="st2" d="M-44.7,94c0.4,0.4,0.5,0.9,0.5,1.5c0,0.4-0.1,0.9-0.3,1.3c-0.2,0.4-0.6,0.7-1.1,0.9c-0.5,0.2-1.1,0.3-1.8,0.3
			c-0.5,0-1.1-0.1-1.7-0.2c-0.5-0.1-1-0.3-1.4-0.6l0.7-1.4c0.3,0.2,0.6,0.4,1,0.5c0.4,0.1,0.8,0.2,1.2,0.2c0.4,0,0.8-0.1,1.1-0.2
			c0.2-0.2,0.4-0.4,0.4-0.7c0-0.6-0.5-1-1.5-1h-0.8v-1.2l1.6-1.9h-3.4V90h5.5v1.2l-1.8,2.1C-45.6,93.3-45.1,93.6-44.7,94z"/>
	</g>
</g>
<g>
	<defs>
		<rect id="SVGID_00000164480812674040706680000015207626678762514321_" width="29.1" height="33.6"/>
	</defs>
	<clipPath id="SVGID_00000042733966967790751890000016670409279450323328_">
		<use xlink:href="#SVGID_00000164480812674040706680000015207626678762514321_"  style="overflow:visible;"/>
	</clipPath>
	<g style="clip-path:url(#SVGID_00000042733966967790751890000016670409279450323328_);">
		<path class="st2" d="M19.1,14.3c0.6,0.6,0.8,1.4,0.8,2.5v4.3h-2.2v-4.1c0-0.6-0.1-1.1-0.4-1.3c-0.2-0.2-0.6-0.5-1.1-0.5
			c-0.5,0-1,0.1-1.2,0.5c-0.4,0.4-0.5,0.8-0.5,1.4V21h-2.2V17c0-1.2-0.5-1.8-1.4-1.8c-0.5,0-1,0.1-1.2,0.5c-0.4,0.4-0.5,0.8-0.5,1.4
			v3.8H7v-7.5h2.2v0.8c0.2-0.4,0.6-0.6,1.1-0.7c0.4-0.1,0.8-0.2,1.3-0.2c0.5,0,1.1,0.1,1.4,0.4c0.4,0.2,0.8,0.5,1.1,1
			c0.4-0.4,0.7-0.7,1.2-1c0.5-0.2,1-0.4,1.6-0.4C17.8,13.5,18.5,13.9,19.1,14.3z"/>
		<path class="st2" d="M24.1,13.1v1h-3.8v-0.7l2-1.9c0.2-0.2,0.4-0.4,0.5-0.5c-0.1-0.2,0-0.4,0-0.5c0-0.2-0.1-0.4-0.2-0.5
			c-0.1-0.1-0.4-0.1-0.6-0.1c-0.2,0-0.5,0-0.6,0.1c-0.2,0.1-0.4,0.2-0.5,0.4l-0.8-0.6c0.2-0.4,0.5-0.5,0.8-0.7
			c0.4-0.2,0.7-0.2,1.2-0.2c0.4,0,0.7,0.1,1,0.2c0.2,0.1,0.5,0.4,0.7,0.5C24,9.7,24,10,24,10.4c0,0.2,0,0.6-0.1,0.8
			c-0.1,0.2-0.4,0.5-0.7,0.8L22,13.1H24.1z"/>
		<path class="st4" d="M0.6,25.2V2.7h24"/>
		<path class="st4" d="M28.5,8.2v22.5H6.2"/>
		<path class="st4" d="M24.1,2.9L20.7,5"/>
		<path class="st4" d="M24.1,2.6l-3.5-2.1"/>
		<path class="st4" d="M6.6,30.6l3.5-2"/>
		<path class="st4" d="M6.6,30.8L10,33"/>
	</g>
</g>
<g>
	<defs>
		<rect id="SVGID_00000167392167072347324390000011416409436809588143_" x="72" y="2" width="29.1" height="29.1"/>
	</defs>
	<clipPath id="SVGID_00000146467778836521513390000006270470567797140388_">
		<use xlink:href="#SVGID_00000167392167072347324390000011416409436809588143_"  style="overflow:visible;"/>
	</clipPath>
	<g style="clip-path:url(#SVGID_00000146467778836521513390000006270470567797140388_);">
		<path class="st4" d="M100.4,13.3H86.6v10.4"/>
		<path class="st6" d="M73,19.9h7.5"/>
		<path class="st6" d="M80.6,23.9V13.2"/>
		<path class="st4" d="M86.6,27.2v3.3c2.4,0,14,0,14,0V2.6H72.6v27.9c0,0,6.1,0,8,0v-3.3"/>
		<path class="st4" d="M80.5,8.7V2.8"/>
	</g>
</g>
</svg>
